<?xml version="1.0" encoding="UTF-8"?>
<svg width="390" height="844" viewBox="0 0 390 844" fill="none" xmlns="http://www.w3.org/2000/svg">
  <!-- Background -->
  <rect width="390" height="844" fill="#FFFFFF"/>
  
  <!-- Diagonal Orange Background -->
  <path d="M190 0L390 0L390 500L190 350L190 0Z" fill="#FF8C42" opacity="0.9"/>
  
  <!-- Header Text -->
  <text x="30" y="80" font-family="Arial" font-size="24" font-weight="bold" fill="#333333">Add New Meal</text>
  
  <!-- Photo Upload Circle -->
  <circle cx="195" cy="200" r="80" fill="#F5F5F5" stroke="#E0E0E0" stroke-width="2"/>
  <path d="M175 190 L195 170 L215 190 L215 210 L175 210 Z" fill="none" stroke="#BDBDBD" stroke-width="2"/>
  <text x="165" y="240" font-family="Arial" font-size="14" fill="#757575">Upload Photo</text>
  
  <!-- Input Fields -->
  <rect x="30" y="320" width="330" height="60" rx="12" fill="#F5F5F5"/>
  <text x="45" y="355" font-family="Arial" font-size="16" fill="#333333">Meal Name</text>
  
  <rect x="30" y="400" width="330" height="60" rx="12" fill="#F5F5F5"/>
  <text x="45" y="435" font-family="Arial" font-size="16" fill="#333333">Calories</text>
  
  <!-- Add Button -->
  <rect x="30" y="500" width="330" height="60" rx="30" fill="#FF8C42"/>
  <text x="150" y="540" font-family="Arial" font-size="18" font-weight="bold" fill="#FFFFFF">Add Meal</text>
  
  <!-- Decorative Elements -->
  <circle cx="50" cy="150" r="20" fill="#FF8C42" opacity="0.1"/>
  <circle cx="340" cy="600" r="30" fill="#FF8C42" opacity="0.1"/>
  <path d="M320 700 Q 340 720 360 700" stroke="#FF8C42" stroke-width="2" opacity="0.3" fill="none"/>
</svg>