<svg width="390" height="844" viewBox="0 0 390 844" fill="none" xmlns="http://www.w3.org/2000/svg">
  <!-- Background -->
  <rect width="390" height="844" fill="#F8F8F8"/>
  
  <!-- Status Bar -->
  <rect width="390" height="44" fill="#FFFFFF"/>
  <text x="24" y="27" font-family="SF Pro Text" font-size="14" font-weight="600" fill="#000000">9:41</text>
  <text x="340" y="27" font-family="SF Pro Text" font-size="14" font-weight="400" fill="#000000">100%</text>
  
  <!-- App Bar -->
  <rect y="44" width="390" height="60" fill="#FF5A00"/>
  <text x="195" y="80" font-family="SF Pro Display" font-size="20" font-weight="600" fill="#FFFFFF" text-anchor="middle">Meal Tracker</text>
  
  <!-- Calories Summary Card -->
  <rect x="16" y="120" width="358" height="100" rx="12" fill="#FFFFFF" stroke="#EEEEEE" stroke-width="1"/>
  <text x="32" y="150" font-family="SF Pro Display" font-size="16" font-weight="500" fill="#333333">Today's Calories</text>
  <text x="32" y="190" font-family="SF Pro Display" font-size="32" font-weight="700" fill="#FF5A00">1,850</text>
  <text x="120" y="190" font-family="SF Pro Display" font-size="16" font-weight="400" fill="#666666">calories</text>
  
  <!-- Sort Button -->
  <rect x="16" y="236" width="120" height="40" rx="20" fill="#FF5A00"/>
  <text x="76" y="260" font-family="SF Pro Display" font-size="14" font-weight="500" fill="#FFFFFF" text-anchor="middle">Sort by: Date</text>
  <path d="M106 252L116 258L106 264" stroke="#FFFFFF" stroke-width="2" stroke-linecap="round" stroke-linejoin="round"/>
  
  <!-- Meals List Title -->
  <text x="16" y="300" font-family="SF Pro Display" font-size="18" font-weight="600" fill="#333333">Today's Meals</text>
  
  <!-- Meal Item 1 -->
  <rect x="16" y="320" width="358" height="100" rx="12" fill="#FFFFFF" stroke="#EEEEEE" stroke-width="1"/>
  <rect x="32" y="336" width="68" height="68" rx="8" fill="#EEEEEE"/>
  <text x="116" y="356" font-family="SF Pro Display" font-size="16" font-weight="600" fill="#333333">Breakfast Oatmeal</text>
  <text x="116" y="380" font-family="SF Pro Display" font-size="14" font-weight="400" fill="#666666">8:00 AM</text>
  <text x="320" y="368" font-family="SF Pro Display" font-size="18" font-weight="700" fill="#FF5A00" text-anchor="end">320</text>
  <text x="342" y="368" font-family="SF Pro Display" font-size="12" font-weight="400" fill="#666666">cal</text>
  <!-- Food icon in meal item 1 -->
  <circle cx="66" cy="370" r="20" fill="#FFE0D0"/>
  <path d="M56 370C56 365 60 360 66 360C72 360 76 365 76 370C76 375 72 380 66 380C60 380 56 375 56 370Z" stroke="#FF5A00" stroke-width="2"/>
  <path d="M61 366L71 374" stroke="#FF5A00" stroke-width="2" stroke-linecap="round"/>
  <path d="M61 374L71 366" stroke="#FF5A00" stroke-width="2" stroke-linecap="round"/>
  
  <!-- Meal Item 2 -->
  <rect x="16" y="436" width="358" height="100" rx="12" fill="#FFFFFF" stroke="#EEEEEE" stroke-width="1"/>
  <rect x="32" y="452" width="68" height="68" rx="8" fill="#EEEEEE"/>
  <text x="116" y="472" font-family="SF Pro Display" font-size="16" font-weight="600" fill="#333333">Chicken Salad</text>
  <text x="116" y="496" font-family="SF Pro Display" font-size="14" font-weight="400" fill="#666666">12:30 PM</text>
  <text x="320" y="484" font-family="SF Pro Display" font-size="18" font-weight="700" fill="#FF5A00" text-anchor="end">450</text>
  <text x="342" y="484" font-family="SF Pro Display" font-size="12" font-weight="400" fill="#666666">cal</text>
  <!-- Food icon in meal item 2 -->
  <circle cx="66" cy="486" r="20" fill="#FFE0D0"/>
  <path d="M56 486C56 481 60 476 66 476C72 476 76 481 76 486C76 491 72 496 66 496C60 496 56 491 56 486Z" stroke="#FF5A00" stroke-width="2"/>
  <path d="M61 482L71 490" stroke="#FF5A00" stroke-width="2" stroke-linecap="round"/>
  <path d="M61 490L71 482" stroke="#FF5A00" stroke-width="2" stroke-linecap="round"/>
  
  <!-- Meal Item 3 -->
  <rect x="16" y="552" width="358" height="100" rx="12" fill="#FFFFFF" stroke="#EEEEEE" stroke-width="1"/>
  <rect x="32" y="568" width="68" height="68" rx="8" fill="#EEEEEE"/>
  <text x="116" y="588" font-family="SF Pro Display" font-size="16" font-weight="600" fill="#333333">Pasta with Sauce</text>
  <text x="116" y="612" font-family="SF Pro Display" font-size="14" font-weight="400" fill="#666666">6:45 PM</text>
  <text x="320" y="600" font-family="SF Pro Display" font-size="18" font-weight="700" fill="#FF5A00" text-anchor="end">680</text>
  <text x="342" y="600" font-family="SF Pro Display" font-size="12" font-weight="400" fill="#666666">cal</text>
  <!-- Food icon in meal item 3 -->
  <circle cx="66" cy="602" r="20" fill="#FFE0D0"/>
  <path d="M56 602C56 597 60 592 66 592C72 592 76 597 76 602C76 607 72 612 66 612C60 612 56 607 56 602Z" stroke="#FF5A00" stroke-width="2"/>
  <path d="M61 598L71 606" stroke="#FF5A00" stroke-width="2" stroke-linecap="round"/>
  <path d="M61 606L71 598" stroke="#FF5A00" stroke-width="2" stroke-linecap="round"/>
  
  <!-- Meal Item 4 -->
  <rect x="16" y="668" width="358" height="100" rx="12" fill="#FFFFFF" stroke="#EEEEEE" stroke-width="1"/>
  <rect x="32" y="684" width="68" height="68" rx="8" fill="#EEEEEE"/>
  <text x="116" y="704" font-family="SF Pro Display" font-size="16" font-weight="600" fill="#333333">Protein Shake</text>
  <text x="116" y="728" font-family="SF Pro Display" font-size="14" font-weight="400" fill="#666666">9:15 PM</text>
  <text x="320" y="716" font-family="SF Pro Display" font-size="18" font-weight="700" fill="#FF5A00" text-anchor="end">400</text>
  <text x="342" y="716" font-family="SF Pro Display" font-size="12" font-weight="400" fill="#666666">cal</text>
  <!-- Food icon in meal item 4 -->
  <circle cx="66" cy="718" r="20" fill="#FFE0D0"/>
  <path d="M56 718C56 713 60 708 66 708C72 708 76 713 76 718C76 723 72 728 66 728C60 728 56 723 56 718Z" stroke="#FF5A00" stroke-width="2"/>
  <path d="M61 714L71 722" stroke="#FF5A00" stroke-width="2" stroke-linecap="round"/>
  <path d="M61 722L71 714" stroke="#FF5A00" stroke-width="2" stroke-linecap="round"/>
  
  <!-- Add Meal Button -->
  <circle cx="330" cy="784" r="30" fill="#FF5A00"/>
  <path d="M330 774V794" stroke="#FFFFFF" stroke-width="3" stroke-linecap="round"/>
  <path d="M320 784H340" stroke="#FFFFFF" stroke-width="3" stroke-linecap="round"/>
</svg>